<?xml version="1.0" encoding="utf-8"?>
<!-- Generator: Adobe Illustrator 16.0.0, SVG Export Plug-In . SVG Version: 6.00 Build 0)  -->
<!DOCTYPE svg PUBLIC "-//W3C//DTD SVG 1.1//EN" "http://www.w3.org/Graphics/SVG/1.1/DTD/svg11.dtd">
<svg version="1.1" id="Calque_1" xmlns="http://www.w3.org/2000/svg" xmlns:xlink="http://www.w3.org/1999/xlink" x="0px" y="0px"
	 width="517px" height="353px" viewBox="0 0 517 353" enable-background="new 0 0 517 353" xml:space="preserve">
<g>
	<polygon fill="#FFFFFF" points="54.667,256.333 24,256.333 24,26.132 54.667,65.125 	"/>
	<polygon fill="#FFFFFF" points="207.89,256.333 168.87,256.333 24.5,75.614 24,26.132 	"/>
	<rect x="283.881" y="26.132" fill="#FFFFFF" width="30.666" height="230.201"/>
	<rect x="314.25" y="141.232" fill="#FFFFFF" width="175.25" height="30.666"/>
	<rect x="458.834" y="171.828" fill="#FFFFFF" width="30.666" height="84.504"/>
	<polygon fill="#FFFFFF" points="203.202,173.31 183.545,197.399 48.287,26.132 85.87,26.132 	"/>
	<text transform="matrix(1.014 0 0 1 21.5005 332.334)" fill="#FFFFFF" font-family="'MyriadPro-Regular'" font-size="72">CONCEPT</text>
	
		<text transform="matrix(1.0387 0 0 1 327.333 332.2188)" fill="#FFFFFF" stroke="#FFFFFF" stroke-miterlimit="10" font-family="'MyriadPro-Regular'" font-size="24.46">ARCHITECTURE</text>
	<polygon fill="#FFFFFF" points="283.881,26.132 289.625,67.625 183.517,197.399 174.762,161.414 	"/>
</g>
</svg>
